<svg width="146" height="38" viewBox="0 0 146 38" fill="none" xmlns="http://www.w3.org/2000/svg">
<path d="M54.0593 22.6943C53.9405 22.6943 53.8944 22.7428 53.8459 22.8592L53.111 24.8019C52.8733 25.4179 52.7326 26.034 52.7326 26.3178C52.7326 26.7665 52.9461 26.9799 53.4433 27.0284C53.7028 27.0769 54.0836 27.0987 54.2728 27.123C54.6293 27.123 54.6996 27.2418 54.6996 27.3607C54.6996 27.5498 54.5104 27.5984 54.2024 27.5984C53.1377 27.5984 52.3325 27.528 51.0761 27.528C50.8166 27.528 49.2522 27.5984 48.0687 27.5984C47.7364 27.5984 47.5957 27.5038 47.5957 27.3607C47.5957 27.1715 47.7606 27.123 48.0444 27.123C48.3282 27.0987 48.5659 27.0745 48.8011 27.0284C49.6306 26.8635 50.1035 26.1286 50.6007 24.9911L56.9237 10.6862C57.3748 9.66758 57.6343 9.31348 57.8938 9.31348C58.1315 9.31348 58.345 9.64575 58.7476 10.4971C59.3636 11.8237 63.3412 20.8946 64.9517 24.4939C65.7569 26.342 66.2784 26.9095 67.1078 27.0284C67.3673 27.0987 67.6535 27.0987 67.8645 27.123C68.1726 27.123 68.3157 27.2176 68.3157 27.3607C68.3157 27.5256 68.1507 27.5984 67.6996 27.5984C65.3785 27.5984 62.6791 27.5498 61.1632 27.528C60.7849 27.528 60.6418 27.4577 60.6418 27.3146C60.6418 27.1715 60.7606 27.0769 60.9741 27.0308C61.2336 26.9823 61.3306 26.8174 61.2578 26.604L59.6716 22.8374C59.6474 22.7428 59.5528 22.6943 59.4825 22.6943H54.0593ZM58.7961 20.7976C58.9392 20.7976 58.9392 20.7273 58.9149 20.6788L56.8315 15.6097C56.7612 15.4448 56.7127 15.4909 56.6666 15.6097L54.6535 20.6788C54.6293 20.7491 54.6778 20.7976 54.7481 20.7976H58.7985H58.7961Z" fill="#131313"/>
<path d="M74.3796 20.1113C74.3796 23.3807 74.8768 24.7534 76.1793 25.6775C77.1494 26.3178 77.9546 26.3396 78.5464 26.3396C79.3031 26.3396 80.3218 26.1747 81.1513 25.4641C82.4779 24.3266 82.4779 21.8405 82.4779 19.4006V16.5581C82.4779 13.0777 82.4779 12.4616 82.4294 11.7025C82.3809 10.8027 82.1917 10.4001 81.4108 10.257C81.1513 10.2085 81.0082 10.2085 80.5352 10.1624C80.2272 10.1624 80.1083 10.0678 80.1083 9.92469C80.1083 9.7816 80.2272 9.68701 80.6541 9.68701C82.005 9.68701 83.4481 9.75734 83.8264 9.75734C84.2533 9.75734 85.7934 9.68701 86.9528 9.68701C87.3069 9.68701 87.4499 9.75734 87.4499 9.92469C87.4499 10.0435 87.3554 10.1381 87.0473 10.1624C86.7878 10.1866 86.6447 10.1866 86.3124 10.257C85.6722 10.3758 85.483 10.7299 85.4126 11.7025C85.3641 12.4592 85.3423 13.0753 85.3423 16.5581V18.8792C85.3423 21.5786 85.2235 24.4915 82.9266 26.3639C81.4593 27.596 79.6111 27.9258 78.0007 27.9258C75.9173 27.9258 73.8315 27.6178 72.3641 26.3396C71.1078 25.2967 70.1619 23.5698 70.1619 20.1573V16.5581C70.1619 12.8861 70.1619 12.224 70.0916 11.4672C70.0431 10.8051 69.9024 10.4971 69.3567 10.3297C69.0972 10.2351 68.5515 10.1866 68.338 10.1648C67.9839 10.1406 67.8408 10.046 67.8408 9.90529C67.8408 9.76462 68.03 9.69186 68.4811 9.69186C69.4998 9.69186 71.8912 9.7622 72.1046 9.7622C72.2938 9.7622 75.1121 9.69186 75.9658 9.69186C76.3684 9.69186 76.4873 9.7622 76.4873 9.90529C76.4873 10.0945 76.3684 10.143 76.0604 10.1648C75.847 10.1891 75.5147 10.2133 75.2794 10.2594C74.6173 10.4025 74.4985 10.8997 74.45 11.6564C74.4015 12.4131 74.3796 13.5264 74.3796 16.5581V20.1113Z" fill="#131313"/>
<path d="M92.4508 16.5581C92.4508 12.8861 92.4023 12.4132 92.3805 11.6564C92.332 10.6863 92.0482 10.3783 91.4807 10.2594C91.1241 10.1891 90.7458 10.1891 90.5323 10.1648C90.2486 10.1406 90.1055 10.046 90.1055 9.90533C90.1055 9.76466 90.2704 9.69189 90.6269 9.69189C91.6456 9.69189 93.9181 9.76223 94.2504 9.76223C94.6991 9.76223 96.9741 9.69189 98.0631 9.69189C100.29 9.69189 101.852 9.90533 102.894 10.4971C104.032 11.1132 105.051 12.321 105.051 14.1206C105.051 16.1094 103.913 17.6253 101.878 18.8816C103.324 20.965 105.051 23.4995 106.496 25.1585C107.752 26.5555 108.32 26.9581 108.982 27.0527C109.242 27.1012 109.385 27.1012 109.574 27.123C109.833 27.123 109.977 27.2176 109.977 27.3607C109.977 27.5742 109.739 27.5984 109.504 27.5984H107.372C104.932 27.5984 103.891 27.3607 103.062 26.8174C102.305 26.3663 101.546 25.3501 100.622 23.8561C99.5329 22.0564 98.9872 21.0863 98.5603 20.446C98.5118 20.3757 98.3954 20.3029 98.2766 20.3029H96.7146C96.5958 20.3029 96.5254 20.3514 96.5254 20.4921V21.6999C96.5254 23.5699 96.5254 24.6831 96.6443 25.6775C96.6928 26.2936 96.8577 26.815 97.5683 26.9799C97.9006 27.0745 98.1601 27.0745 98.6331 27.123C99.0114 27.1473 99.0599 27.2419 99.0599 27.3826C99.0599 27.5232 98.895 27.596 98.5627 27.596C96.9765 27.596 94.3935 27.5257 94.2286 27.5257C93.9448 27.5257 91.648 27.596 90.8428 27.596C90.4887 27.596 90.3698 27.5257 90.3698 27.3583C90.3698 27.191 90.5348 27.1206 90.7967 27.1206C91.0344 27.0964 91.3424 27.0721 91.6019 27.026C92.0749 26.9072 92.2641 26.4803 92.3368 25.6751C92.4314 24.6807 92.4557 23.0217 92.4557 20.7249V16.5557L92.4508 16.5581ZM96.523 18.1467C96.523 18.3359 96.5933 18.4305 96.7364 18.5008C97.1851 18.7385 97.8958 18.8089 98.5603 18.8089C99.2249 18.8089 99.6736 18.7143 100.052 18.4305C100.549 18.0521 100.976 17.0335 100.976 15.4473C100.976 12.0833 98.8441 11.2078 97.612 11.2078C97.2336 11.2078 96.831 11.232 96.6637 11.3023C96.5691 11.3508 96.5206 11.3727 96.5206 11.5619V18.1467H96.523Z" fill="#131313"/>
<path d="M110.591 18.7143C110.591 13.9775 113.763 9.35962 120.726 9.35962C126.741 9.35962 130.508 13.3857 130.508 18.1928C130.508 23.7105 126.766 27.9258 120.562 27.9258C113.574 27.9258 110.591 22.9053 110.591 18.7119V18.7143ZM125.774 19.2357C125.774 15.3042 124.139 10.827 119.948 10.827C117.77 10.827 115.33 12.0348 115.33 17.6471C115.33 22.1243 117.2 26.41 121.275 26.41C122.742 26.41 125.774 25.7697 125.774 19.2333V19.2357Z" fill="#131313"/>
<path d="M134.936 27.2637C134.533 27.0988 134.414 26.7908 134.414 26.3154C134.414 24.3969 134.484 23.4971 134.557 22.835C134.606 22.4081 134.7 22.2675 134.841 22.2675C135.006 22.2675 135.03 22.4809 135.054 22.6701C135.079 22.9078 135.103 23.1212 135.173 23.405C135.576 25.3477 137.351 26.4609 139.199 26.4609C141.45 26.4609 142.136 25.3016 142.136 24.2829C142.136 23.2643 141.947 22.4591 139.934 21.0863L138.467 20.0677C135.578 18.0303 134.773 16.3738 134.773 14.288C134.773 11.5643 137.024 9.36206 140.812 9.36206C141.831 9.36206 142.541 9.41057 143.536 9.59975C143.914 9.67009 144.317 9.76468 144.695 9.88352C144.933 9.95386 145.003 10.0266 145.003 10.2158C144.955 10.9725 144.909 11.4479 144.909 13.5555C144.909 13.9824 144.838 14.1473 144.649 14.1473C144.53 14.1473 144.436 14.077 144.39 13.6962C144.365 13.4585 144.295 12.8667 143.963 12.3234C143.512 11.5667 142.423 10.7591 140.718 10.7591C138.775 10.7591 138.064 11.8481 138.064 12.9371C138.064 13.7423 138.348 14.6664 139.958 15.7553L141.166 16.5606C144.482 18.7628 145.525 20.2326 145.525 22.624C145.525 24.2587 144.79 25.8691 143.014 26.9096C141.642 27.7391 140.126 27.9283 138.894 27.9283C137.118 27.9283 135.862 27.6906 134.938 27.2662L134.936 27.2637Z" fill="#131313"/>
<path d="M42.0391 37.2343H28.736C27.1692 37.2149 25.68 36.303 24.9985 34.7774V34.775V34.7701L21.0184 25.8375L18.6343 20.4798C18.6343 20.4798 18.6343 20.4774 18.6343 20.475C18.6124 20.4216 18.5882 20.3683 18.5639 20.3149C18.4305 20.0287 18.2729 19.7547 18.091 19.5C17.2348 18.2873 15.8742 17.4554 14.3195 17.3075C14.1546 17.2929 13.9873 17.2832 13.8175 17.2832C13.6477 17.2832 13.4804 17.2905 13.3154 17.3075L13.8175 16.1797L15.2679 12.9175L18.1443 6.45876L21.0208 0L23.8973 6.45876L26.7738 12.9175L33.315 27.6104L33.3248 27.6347C35.202 31.8476 38.3113 35.1242 42.0415 37.2319L42.0391 37.2343Z" fill="#131313"/>
<path d="M19.5679 29.0996L17.0431 34.7701V34.775C17.0431 34.775 17.0382 34.7798 17.0382 34.7823C16.3494 36.3199 14.8384 37.2343 13.2522 37.2343H0C3.73022 35.1267 6.83955 31.85 8.71679 27.6371L8.72649 27.6129L8.74589 27.5716L9.61175 25.6265L11.4162 21.5737L11.5035 21.3772C11.9256 20.5259 12.8035 19.9414 13.8149 19.9414C14.8263 19.9414 15.7213 20.538 16.1384 21.4015L16.1894 21.5155C16.1894 21.5155 16.1942 21.5276 16.1966 21.5324L16.6914 22.6408L18.0205 25.6241L19.5679 29.0996Z" fill="#131313"/>
</svg>
